<?xml version="1.0" standalone="no"?>
<!DOCTYPE svg PUBLIC "-//W3C//DTD SVG 20010904//EN"
 "http://www.w3.org/TR/2001/REC-SVG-20010904/DTD/svg10.dtd">
<svg version="1.0" xmlns="http://www.w3.org/2000/svg"
 width="64.000000pt" height="64.000000pt" viewBox="0 0 64.000000 64.000000"
 preserveAspectRatio="xMidYMid meet">

<g transform="translate(0.000000,64.000000) scale(0.100000,-0.100000)"
fill="#000000" stroke="none">
<path d="M0 320 l0 -320 320 0 320 0 0 320 0 320 -320 0 -320 0 0 -320z m343
153 c4 -58 9 -108 12 -111 2 -3 44 9 92 27 103 36 103 36 103 13 0 -12 -26
-28 -94 -56 l-93 -39 64 -94 c59 -86 72 -123 43 -123 -6 0 -40 41 -76 90 -36
50 -69 90 -73 90 -4 0 -36 -40 -72 -90 -35 -49 -69 -90 -76 -90 -28 0 -22 26
23 93 27 40 56 84 66 99 l17 26 -95 39 c-86 35 -109 53 -85 67 5 3 47 -8 92
-24 46 -16 90 -30 97 -30 9 0 12 27 12 103 0 57 3 107 7 110 22 23 30 1 36
-100z"/>
</g>
</svg>
